<?xml version="1.0" encoding="UTF-8" standalone="no"?>
<!-- Created with Inkscape (http://www.inkscape.org/) -->

<svg
   xmlns:dc="http://purl.org/dc/elements/1.1/"
   xmlns:cc="http://creativecommons.org/ns#"
   xmlns:rdf="http://www.w3.org/1999/02/22-rdf-syntax-ns#"
   xmlns:svg="http://www.w3.org/2000/svg"
   xmlns="http://www.w3.org/2000/svg"
   xmlns:sodipodi="http://sodipodi.sourceforge.net/DTD/sodipodi-0.dtd"
   xmlns:inkscape="http://www.inkscape.org/namespaces/inkscape"
   width="15in"
   height="11in"
   viewBox="0 0 381 279.4"
   version="1.1"
   id="svg4277"
   inkscape:export-filename="C:\Users\DJ Rosboss\Downloads\Vectors\OUTPUTS\VECTOR1.png"
   inkscape:export-xdpi="96"
   inkscape:export-ydpi="96"
   inkscape:version="0.92.4 (5da689c313, 2019-01-14)"
   sodipodi:docname="cloudWizOzLogo.svg">
  <defs
     id="defs4271" />
  <sodipodi:namedview
     id="base"
     pagecolor="#ffffff"
     bordercolor="#666666"
     borderopacity="1.0"
     inkscape:pageopacity="0.0"
     inkscape:pageshadow="2"
     inkscape:zoom="0.39539975"
     inkscape:cx="699.05063"
     inkscape:cy="779.42838"
     inkscape:document-units="mm"
     inkscape:current-layer="layer1"
     showgrid="false"
     units="in"
     inkscape:snap-global="true"
     inkscape:window-width="1920"
     inkscape:window-height="1017"
     inkscape:window-x="-8"
     inkscape:window-y="-8"
     inkscape:window-maximized="1" />
  <metadata
     id="metadata4274">
    <rdf:RDF>
      <cc:Work
         rdf:about="">
        <dc:format>image/svg+xml</dc:format>
        <dc:type
           rdf:resource="http://purl.org/dc/dcmitype/StillImage" />
        <dc:title></dc:title>
      </cc:Work>
    </rdf:RDF>
  </metadata>
  <g
     inkscape:label="Layer 1"
     inkscape:groupmode="layer"
     id="layer1"
     transform="translate(0,-17.6)">
    <flowRoot
       xml:space="preserve"
       id="flowRoot8146"
       style="font-style:normal;font-weight:normal;font-size:40px;line-height:1.25;font-family:sans-serif;letter-spacing:0px;word-spacing:0px;fill:#000000;fill-opacity:1;stroke:none"
       transform="matrix(0.26458333,0,0,0.26458333,0,17.6)"><flowRegion
         id="flowRegion8148"><rect
           id="rect8150"
           width="650"
           height="214.28572"
           x="935.71429"
           y="401.71429" /></flowRegion><flowPara
         id="flowPara8152"></flowPara></flowRoot>    <flowRoot
       xml:space="preserve"
       id="flowRoot8154"
       style="font-style:normal;font-weight:normal;font-size:40px;line-height:1.25;font-family:sans-serif;letter-spacing:0px;word-spacing:0px;fill:#000000;fill-opacity:1;stroke:none"
       transform="matrix(0.26458333,0,0,0.26458333,0,17.6)"><flowRegion
         id="flowRegion8156"><rect
           id="rect8158"
           width="240.41631"
           height="143.44167"
           x="666.70068"
           y="686.28418" /></flowRegion><flowPara
         id="flowPara8160"></flowPara></flowRoot>    <g
       id="g12903"
       transform="matrix(1.3840434,0,0,-1.1188558,405.4102,165.18537)" />
    <g
       id="g12907"
       transform="matrix(0.65703753,0,0,-0.53873266,198.91519,155.49468)"
       style="stroke-width:3.79485631;stroke-miterlimit:4;stroke-dasharray:none"
       inkscape:export-xdpi="69.639999"
       inkscape:export-ydpi="69.639999">
      <path
         d="m 0,0 c 9.401,26.461 -3.769,55.772 -29.423,65.471 -11.804,4.462 -24.174,3.947 -35.028,-0.44 -2.02,14.408 -11.441,27.239 -25.617,32.595 -16.027,6.064 -33.366,0.749 -43.825,-11.913 -7.273,9.436 -17.067,16.991 -28.839,21.443 -34.12,12.902 -71.922,-5.172 -84.428,-40.369 -0.46,-1.31 -0.875,-2.619 -1.254,-3.934 -15.825,3.777 -32.268,-5.081 -38.005,-21.217 -4.639,-13.056 -0.946,-27.16 8.278,-36.13 -7.228,-27.012 6.702,-55.666 32.663,-65.479 15.118,-5.716 31.119,-3.817 44.113,3.767 3.662,-2.643 7.668,-4.887 12.056,-6.549 17.486,-6.61 36.148,-3.038 49.971,7.744 6.167,-8.455 14.654,-15.26 25.003,-19.17 28.553,-10.795 60.189,4.331 70.658,33.785 0.845,2.391 1.471,4.8 1.994,7.215 C -23.359,-31.334 -6.76,-19.02 0,0 Z"
         style="fill:none;stroke:#0095a8;stroke-width:3.79485631;stroke-linecap:butt;stroke-linejoin:miter;stroke-miterlimit:4;stroke-dasharray:none;stroke-opacity:1"
         id="path12909"
         inkscape:connector-curvature="0" />
    </g>
  </g>
  <g
     inkscape:groupmode="layer"
     id="layer3"
     inkscape:label="Layer 2">
    <text
       xml:space="preserve"
       style="font-style:normal;font-weight:normal;font-size:46.85097504px;line-height:1.25;font-family:sans-serif;letter-spacing:0px;word-spacing:0px;fill:#0095de;fill-opacity:1;stroke:none;stroke-width:1.17127407"
       x="21.160145"
       y="145.58586"
       id="text5974"
       inkscape:export-xdpi="69.639999"
       inkscape:export-ydpi="69.639999"><tspan
         sodipodi:role="line"
         id="tspan5972"
         x="21.160145"
         y="145.58586"
         style="font-style:normal;font-variant:normal;font-weight:normal;font-stretch:normal;font-size:43.72757339px;font-family:'Franklin Gothic Demi';-inkscape-font-specification:'Franklin Gothic Demi';letter-spacing:9.94411755px;fill:#0095de;fill-opacity:1;stroke-width:1.17127407"><tspan
           style="fill:#6c5d53"
           id="tspan13897">CLOUDW</tspan><tspan
           id="tspan13903"
           style="letter-spacing:9.9430418px;fill:#6c5d53">IZ</tspan><tspan
           style="letter-spacing:9.9430418px;fill:#917c6f"
           id="tspan13901">OZ</tspan></tspan></text>
    <path
       style="fill:#fcc738;stroke-width:0.15192725"
       inkscape:connector-curvature="0"
       id="path10681"
       d="m 261.96043,101.4346 -2.6105,-4.777751 -2.61054,4.777751 a 0.79930675,0.72193478 0 0 1 -0.59951,0.39273 l -5.83811,0.7667 4.22513,3.71941 a 0.79930675,0.72193478 0 0 1 0.22858,0.63673 l -0.99751,5.24994 5.22107,-2.47916 a 0.79930675,0.72193478 0 0 1 0.74176,1e-5 l 5.22106,2.47915 -0.99754,-5.24417 a 0.79930675,0.72193478 0 0 1 0.22861,-0.63672 l 4.22354,-3.71942 -5.83654,-0.76669 a 0.79930675,0.72193478 0 0 1 -0.5995,-0.39846 z m 0.70023,1.23451 1.75846,0.28877 a 0.47958403,0.43316086 0 0 1 -0.0865,0.85622 0.39006167,0.35230416 0 0 1 -0.0847,-0.008 l -1.75847,-0.28878 a 0.47958403,0.43316086 0 0 1 0.17096,-0.849 z"
       class="cls-3"
       inkscape:transform-center-x="17.574666"
       inkscape:transform-center-y="-21.016491"
       inkscape:export-xdpi="69.639999"
       inkscape:export-ydpi="69.639999" />
    <path
       style="fill:#ffcc00;stroke-width:0.15192725"
       inkscape:connector-curvature="0"
       id="path10725"
       d="m 262.10592,103.01564 a 0.47958403,0.43316086 0 0 0 0.38366,0.50245 l 1.75848,0.28879 a 0.39006167,0.35230416 0 0 0 0.0847,0.008 0.47958403,0.43316086 0 0 0 0.0865,-0.85621 l -1.75847,-0.28876 a 0.47958403,0.43316086 0 0 0 -0.55473,0.34652 z"
       class="cls-10"
       inkscape:transform-center-x="13.476144"
       inkscape:transform-center-y="-22.206339"
       inkscape:export-xdpi="69.639999"
       inkscape:export-ydpi="69.639999" />
  </g>
</svg>
